<svg xmlns="http://www.w3.org/2000/svg" width="696" height="519" viewBox="0 0 696 519" fill="none"><path d="M696 455.741H0V456.089H696V455.741Z" fill="#EBEBEB"></path><path d="M626.261 478.138H580.158V478.486H626.261V478.138Z" fill="#EBEBEB"></path><path d="M461.058 481.924H448.962V482.272H461.058V481.924Z" fill="#EBEBEB"></path><path d="M578.766 465.22H552.053V465.568H578.766V465.22Z" fill="#EBEBEB"></path><path d="M133.145 467.559H73.0243V467.907H133.145V467.559Z" fill="#EBEBEB"></path><path d="M154.359 467.559H145.547V467.907H154.359V467.559Z" fill="#EBEBEB"></path><path d="M313.409 473.433H183.006V473.781H313.409V473.433Z" fill="#EBEBEB"></path><path d="M329.904 393.658H61.1228C59.0171 393.654 56.999 392.815 55.5114 391.325C54.0239 389.834 53.1884 387.815 53.1884 385.709V7.87872C53.2067 5.78519 54.0503 3.78343 55.5359 2.30824C57.0215 0.833054 59.0291 0.00358633 61.1228 0H329.904C332.012 0 334.034 0.83741 335.524 2.32801C337.015 3.81861 337.852 5.84029 337.852 7.94832V385.709C337.852 387.817 337.015 389.839 335.524 391.33C334.034 392.82 332.012 393.658 329.904 393.658V393.658ZM61.1228 0.278401C59.1094 0.282088 57.1798 1.08446 55.7575 2.5094C54.3352 3.93433 53.5364 5.8654 53.5364 7.87872V385.709C53.5364 387.723 54.3352 389.654 55.7575 391.079C57.1798 392.504 59.1094 393.306 61.1228 393.31H329.904C331.919 393.306 333.85 392.504 335.274 391.079C336.699 389.655 337.501 387.724 337.504 385.709V7.87872C337.501 5.86412 336.699 3.93309 335.274 2.50855C333.85 1.08401 331.919 0.282081 329.904 0.278401H61.1228Z" fill="#EBEBEB"></path><path d="M631.008 393.658H362.212C360.105 393.654 358.086 392.815 356.596 391.326C355.106 389.836 354.268 387.816 354.264 385.709V7.87872C354.286 5.78392 355.133 3.78217 356.621 2.30737C358.108 0.832567 360.117 0.00354722 362.212 0H631.008C633.099 0.00724466 635.103 0.838331 636.585 2.31313C638.068 3.78792 638.91 5.78759 638.928 7.87872V385.709C638.928 387.812 638.094 389.83 636.61 391.32C635.125 392.81 633.111 393.65 631.008 393.658V393.658ZM362.212 0.278401C360.198 0.282081 358.267 1.08401 356.842 2.50855C355.418 3.93309 354.616 5.86412 354.612 7.87872V385.709C354.616 387.724 355.418 389.655 356.842 391.079C358.267 392.504 360.198 393.306 362.212 393.31H631.008C633.022 393.306 634.953 392.504 636.378 391.079C637.802 389.655 638.604 387.724 638.608 385.709V7.87872C638.604 5.86412 637.802 3.93309 636.378 2.50855C634.953 1.08401 633.022 0.282081 631.008 0.278401H362.212Z" fill="#EBEBEB"></path><path d="M84.7171 197.511H186.779L186.779 28.7586H84.7171L84.7171 197.511Z" fill="#F5F5F5"></path><path d="M84.7032 28.7446H82.6848V197.497H84.7032V28.7446Z" fill="#E0E0E0"></path><path d="M95.0736 190.077H176.436L176.436 36.1779H95.0736L95.0736 190.077Z" fill="#FAFAFA"></path><path d="M210.86 256.74H312.922V87.9883H210.86V256.74Z" fill="#F5F5F5"></path><path d="M210.86 88.0022H208.842V256.754H210.86V88.0022Z" fill="#E0E0E0"></path><path d="M221.217 249.321H302.579V95.4215H221.217V249.321Z" fill="#FAFAFA"></path><path d="M145.046 412.129C147.58 366.193 140.87 292.417 133.618 266.819C132.658 263.436 131.572 259.511 129.915 258.996C125.183 257.492 123.053 264.912 123.637 267.473C126.421 279.806 129.024 310.416 131.572 363.66C132.839 390.108 131.572 408.315 134.968 412.143L145.046 412.129Z" fill="#E6E6E6"></path><path d="M137.502 309.748C144.156 288.241 229.374 266.15 204.805 289.285C198.694 295.048 170.242 310.235 158.563 326.201C149.487 338.604 140.314 359.47 137.892 371.037C136.834 346.705 133.075 324.085 137.502 309.748Z" fill="#E6E6E6"></path><path d="M147.204 337.017C162.043 304.291 209.496 298.417 196.745 315.692C191.734 322.471 173.36 330.21 161.667 346.176C152.591 358.579 143.418 379.431 141.01 391.013C139.938 366.667 141.01 350.687 147.204 337.017Z" fill="#E6E6E6"></path><path d="M128.551 334.233C110.984 292.139 47.5229 288.784 64.4079 308.342C70.825 315.789 93.2501 329.417 110.191 346.984C123.359 360.625 138.198 383.176 143.251 395.704C139.98 369.882 135.637 351.216 128.551 334.233Z" fill="#E6E6E6"></path><path d="M135.929 287.128C151.658 258.299 199.265 255.209 185.665 270.981C180.334 277.189 162.989 285.054 151.658 300.547C142.847 312.573 132.268 328.275 129.915 339.523C128.885 315.886 128.955 299.92 135.929 287.128Z" fill="#E6E6E6"></path><path d="M122.232 287.698C109.829 269.769 54.288 250.059 68.7091 266.289C83.8958 283.314 94.6838 280.39 109.077 295.257C120.213 306.811 132.741 325.964 137.056 336.46C134.258 314.592 131.112 300.505 122.232 287.698Z" fill="#E6E6E6"></path><path d="M136.973 267.055C144.851 252.885 177.341 242.459 168.863 253.33C162.947 260.875 155.848 266.053 148.318 276.326C142.485 284.316 134.551 294.352 133.006 301.8C132.31 286.14 132.24 275.505 136.973 267.055Z" fill="#E6E6E6"></path><path d="M124.153 271.343C116.218 262.545 73.776 241.665 83.52 255.07C87.3202 260.346 103.509 273.166 114.409 284.497C122.886 293.267 132.184 300.421 135.428 308.398C133.284 291.819 132.101 280.126 124.153 271.343Z" fill="#E6E6E6"></path><path d="M135.024 302.217C123.429 289.383 38.8924 272.846 60.6215 287.016C68.0548 291.861 100.739 300.185 116.677 316.708C129.052 329.528 133.507 350.798 138.253 362.449C150.754 341.973 146.633 315.065 135.024 302.217Z" fill="#E6E6E6"></path><path d="M120.547 410.264L121.633 448.669C121.744 455.963 123.443 455.741 125.503 455.741H152.828C154.874 455.741 156.572 455.963 156.697 448.669L157.783 410.264C157.908 402.358 156.141 395.69 153.913 395.69H124.417C122.19 395.69 120.422 402.358 120.547 410.264Z" fill="#F5F5F5"></path><path d="M118.919 402.692H159.412C159.677 402.708 159.94 402.628 160.152 402.467C160.364 402.306 160.511 402.075 160.567 401.815L161.528 394.465C161.534 394.314 161.508 394.163 161.452 394.023C161.395 393.883 161.31 393.756 161.2 393.652C161.091 393.548 160.96 393.468 160.817 393.419C160.675 393.369 160.523 393.351 160.372 393.365H117.944C117.794 393.353 117.643 393.373 117.502 393.424C117.36 393.474 117.23 393.554 117.121 393.657C117.012 393.761 116.926 393.887 116.869 394.026C116.812 394.165 116.784 394.314 116.789 394.465L117.749 401.815C117.808 402.076 117.958 402.308 118.173 402.468C118.387 402.629 118.651 402.708 118.919 402.692V402.692Z" fill="#F5F5F5"></path><path d="M404.891 240.203H374.239V446.442H404.891V240.203Z" fill="#F0F0F0"></path><path d="M612.48 446.442H380.127V455.741H612.48V446.442Z" fill="#F0F0F0"></path><path d="M404.891 446.442H618.368V240.204L404.891 240.204V446.442Z" fill="#F5F5F5"></path><path d="M401.717 232.088H370.383V240.203H401.717V232.088Z" fill="#F0F0F0"></path><path d="M401.717 240.203L622.224 240.203V232.088L401.717 232.088V240.203Z" fill="#FAFAFA"></path><path d="M607.19 337.574H416.069V257.381H607.19V337.574ZM417.878 335.82H605.436V259.135H417.823L417.878 335.82Z" fill="#E0E0E0"></path><path d="M607.19 429.265H416.069V350.185H607.19V429.265ZM417.878 427.511H605.436V351.939H417.823L417.878 427.511Z" fill="#E0E0E0"></path><path d="M548.838 273.152H474.421C473.548 273.148 472.711 272.8 472.093 272.182C471.475 271.564 471.126 270.727 471.122 269.853V269.853C471.126 268.979 471.475 268.142 472.093 267.524C472.711 266.906 473.548 266.558 474.421 266.554H548.838C549.712 266.558 550.549 266.906 551.167 267.524C551.784 268.142 552.133 268.979 552.137 269.853V269.853C552.133 270.727 551.784 271.564 551.167 272.182C550.549 272.8 549.712 273.148 548.838 273.152V273.152Z" fill="#E0E0E0"></path><path d="M548.852 359.359H474.421C472.599 359.359 471.122 360.836 471.122 362.658C471.122 364.48 472.599 365.957 474.421 365.957H548.852C550.674 365.957 552.151 364.48 552.151 362.658C552.151 360.836 550.674 359.359 548.852 359.359Z" fill="#E0E0E0"></path><path d="M501.691 232.004H590.222L597.405 153.064H508.873L501.691 232.004Z" fill="#E6E6E6"></path><path d="M498.684 232.004H587.215L594.398 153.064H505.867L498.684 232.004Z" fill="#F0F0F0"></path><path d="M579.267 223.263L584.863 161.806H513.815L508.219 223.263H579.267Z" fill="white"></path><path d="M481.186 174.362L475.939 232.004H518.367L523.615 174.362H481.186Z" fill="#E6E6E6"></path><path d="M478.987 174.362L473.739 232.004H516.168L521.415 174.362H478.987Z" fill="#F0F0F0"></path><path d="M484.792 180.737L480.699 225.629H510.377L514.455 180.737H484.792Z" fill="white"></path><path d="M348 518.603C497.059 518.603 617.895 511.549 617.895 502.846C617.895 494.143 497.059 487.089 348 487.089C198.941 487.089 78.1051 494.143 78.1051 502.846C78.1051 511.549 198.941 518.603 348 518.603Z" fill="#F5F5F5"></path><path d="M412.477 81.7383C411.197 78.4928 409.273 75.5398 406.822 73.0564C404.371 70.5731 401.444 68.6107 398.216 67.2871C394.987 65.9636 391.525 65.3062 388.036 65.3544C384.548 65.4026 381.105 66.1555 377.914 67.5677C366.054 72.8016 359.623 88.0162 364.092 100.168C366.323 106.304 370.801 111.364 376.62 114.325C379.04 115.485 381.092 117.291 382.549 119.545L386.224 125.419C387.43 127.342 389.269 128.783 391.424 129.495C393.579 130.206 395.915 130.143 398.028 129.317L407.299 125.656C409.408 124.816 411.157 123.265 412.245 121.273C413.333 119.281 413.691 116.971 413.257 114.743L411.865 107.699C411.419 105.205 411.674 102.637 412.603 100.28C414.865 94.2981 414.82 87.6888 412.477 81.7383V81.7383Z" fill="#0089FF"></path><path d="M399.253 141.037C398.659 141.036 398.072 140.912 397.527 140.675C397.003 140.453 396.528 140.128 396.131 139.719C395.734 139.31 395.423 138.826 395.217 138.295C394.81 137.233 394.837 136.054 395.293 135.012C395.749 133.97 396.597 133.149 397.653 132.727L409.944 127.869C411.006 127.458 412.187 127.484 413.23 127.94C414.272 128.397 415.093 129.247 415.512 130.305C415.732 130.829 415.846 131.392 415.846 131.961C415.846 132.53 415.732 133.093 415.512 133.618C415.054 134.672 414.199 135.502 413.132 135.929L400.896 140.731C400.375 140.943 399.816 141.047 399.253 141.037V141.037ZM411.531 128.913C411.163 128.911 410.799 128.982 410.459 129.122L398.112 133.98C397.57 134.189 397.102 134.555 396.769 135.032C396.436 135.508 396.252 136.073 396.241 136.654C396.231 137.236 396.394 137.807 396.71 138.295C397.026 138.783 397.48 139.166 398.015 139.395C398.371 139.546 398.755 139.624 399.142 139.624C399.53 139.624 399.913 139.546 400.27 139.395L412.561 134.551C412.919 134.407 413.244 134.195 413.519 133.925C413.794 133.655 414.012 133.333 414.162 132.978C414.317 132.624 414.397 132.243 414.397 131.857C414.397 131.471 414.317 131.09 414.162 130.736C413.94 130.181 413.555 129.706 413.059 129.373C412.562 129.04 411.976 128.865 411.378 128.871L411.531 128.913Z" fill="#263238"></path><path d="M405.517 148.526C405.145 148.522 404.776 148.447 404.432 148.304C403.796 148.001 403.299 147.469 403.04 146.814L402.831 146.271C402.7 145.942 402.636 145.591 402.641 145.237C402.647 144.883 402.722 144.534 402.863 144.209C403.004 143.884 403.208 143.591 403.463 143.345C403.718 143.099 404.018 142.906 404.348 142.777L412.018 139.743C412.686 139.5 413.421 139.522 414.073 139.804C414.726 140.086 415.245 140.607 415.526 141.26L415.735 141.803C415.991 142.468 415.976 143.207 415.692 143.861C415.408 144.514 414.878 145.03 414.217 145.297L406.464 148.331C406.163 148.454 405.842 148.52 405.517 148.526V148.526ZM412.965 140.94C412.802 140.944 412.642 140.977 412.491 141.037L404.821 144.072C404.662 144.133 404.516 144.226 404.393 144.344C404.269 144.462 404.17 144.604 404.102 144.76C404.033 144.917 403.996 145.086 403.993 145.256C403.99 145.427 404.021 145.597 404.084 145.756L404.292 146.299C404.355 146.459 404.449 146.605 404.569 146.729C404.688 146.852 404.831 146.951 404.989 147.02C405.146 147.088 405.316 147.125 405.488 147.128C405.66 147.131 405.831 147.1 405.991 147.037L413.661 144.002C413.821 143.94 413.968 143.846 414.092 143.726C414.216 143.607 414.316 143.464 414.384 143.306C414.45 143.15 414.484 142.982 414.484 142.812C414.484 142.642 414.45 142.474 414.384 142.318L414.176 141.775C414.072 141.537 413.903 141.332 413.689 141.184C413.475 141.037 413.224 140.952 412.965 140.94V140.94Z" fill="#263238"></path><path d="M382.675 106.432C381.726 106.434 380.794 106.177 379.98 105.689C379.166 105.2 378.5 104.499 378.055 103.661C377.61 102.823 377.402 101.879 377.453 100.931C377.504 99.9832 377.813 99.0673 378.345 98.2818C378.878 97.4963 379.615 96.8709 380.477 96.473C381.339 96.0751 382.293 95.9197 383.236 96.0235C384.18 96.1273 385.077 96.4864 385.832 97.0622C386.586 97.638 387.17 98.4086 387.519 99.2912L389.44 104.149L384.582 106.056C383.976 106.303 383.329 106.43 382.675 106.432ZM382.675 97.3842C382.108 97.3782 381.548 97.4979 381.034 97.7346C380.519 97.9714 380.064 98.3193 379.7 98.7533C379.336 99.1874 379.073 99.6967 378.93 100.245C378.787 100.792 378.767 101.365 378.872 101.922C378.977 102.478 379.205 103.004 379.537 103.462C379.87 103.921 380.301 104.299 380.798 104.571C381.294 104.842 381.845 105 382.411 105.033C382.976 105.066 383.542 104.974 384.067 104.762L387.63 103.37L386.238 99.8202C385.95 99.1099 385.455 98.5029 384.817 98.0783C384.178 97.6537 383.427 97.4312 382.661 97.4399L382.675 97.3842Z" fill="white"></path><path d="M398.07 129.79L387.644 103.356L397.235 99.5697L407.661 126.004L406.367 126.519L396.442 101.379L389.44 104.149L399.365 129.275L398.07 129.79Z" fill="white"></path><path d="M396.442 101.379L394.534 96.5211C394.155 95.5607 394.068 94.5092 394.286 93.4996C394.504 92.49 395.016 91.5677 395.758 90.8495C396.501 90.1313 397.439 89.6494 398.455 89.4648C399.472 89.2802 400.52 89.4012 401.467 89.8125C402.415 90.2239 403.219 90.907 403.778 91.7755C404.337 92.6439 404.626 93.6587 404.608 94.6914C404.59 95.7241 404.266 96.7283 403.677 97.5768C403.088 98.4253 402.261 99.0801 401.3 99.4583L396.442 101.379ZM399.379 90.7722C398.902 90.7787 398.43 90.8731 397.987 91.0506C397.519 91.2347 397.091 91.5097 396.73 91.8595C396.369 92.2094 396.08 92.6273 395.881 93.0892C395.681 93.5511 395.576 94.0479 395.569 94.5509C395.563 95.0539 395.656 95.5532 395.843 96.02L397.235 99.5696L400.785 98.1776C401.614 97.8521 402.304 97.2473 402.736 96.4674C403.167 95.6875 403.313 94.7815 403.148 93.9057C402.983 93.0298 402.518 92.2389 401.832 91.6694C401.147 91.0999 400.284 90.7876 399.393 90.7861L399.379 90.7722Z" fill="white"></path><path d="M418.059 167.722C412.832 167.729 407.613 167.305 402.455 166.455L402.692 165.063C407.753 165.899 412.874 166.318 418.004 166.316L418.059 167.722Z" fill="#0089FF"></path><path d="M446.832 182.143L447.57 180.64C450.137 174.924 450.653 168.498 449.031 162.446C443.615 164.388 438.02 165.786 432.327 166.622L432.119 165.23C437.953 164.357 443.681 162.883 449.212 160.832L449.908 160.581L450.117 161.277C451.884 167.317 451.655 173.766 449.463 179.665C466.571 172.859 484.43 148.693 484.43 119.907C484.43 94.3497 454.627 73.5532 417.99 73.5532C381.352 73.5532 351.563 94.3497 351.563 119.907C351.563 138.49 367.391 155.236 391.932 162.558L391.528 163.95C366.472 156.447 350.213 139.186 350.213 119.963C350.213 93.6398 380.642 72.2169 418.032 72.2169C455.421 72.2169 485.864 93.6398 485.864 119.963C485.864 150.225 466.376 175.517 448.419 181.6L446.832 182.143Z" fill="#0089FF"></path><path d="M485.476 83.971L439.105 92.256C435.775 92.8509 433.557 96.0327 434.152 99.3626L439.088 126.988C439.683 130.318 442.865 132.535 446.195 131.94L492.566 123.655C495.896 123.06 498.113 119.878 497.518 116.548L492.582 88.9231C491.987 85.5932 488.805 83.3761 485.476 83.971Z" fill="#0089FF"></path><path d="M474.338 106.474L457.912 100.544L460.989 117.721L474.338 106.474Z" fill="white"></path><path d="M299.642 336.405H181.377C178.925 336.405 176.937 338.393 176.937 340.845V347.151C176.937 349.603 178.925 351.591 181.377 351.591H299.642C302.094 351.591 304.082 349.603 304.082 347.151V340.845C304.082 338.393 302.094 336.405 299.642 336.405Z" fill="#0089FF"></path><path d="M298.306 494.494H301.827L297.777 351.591H292.891L298.306 494.494Z" fill="#0089FF"></path><path opacity="0.3" d="M298.306 494.494H301.827L297.777 351.591H292.891L298.306 494.494Z" fill="white"></path><path d="M265.83 494.494H262.308L266.373 351.591H271.245L265.83 494.494Z" fill="#0089FF"></path><path opacity="0.3" d="M265.83 494.494H262.308L266.373 351.591H271.245L265.83 494.494Z" fill="white"></path><path d="M215.189 494.494H218.725L214.66 351.591H209.774L215.189 494.494Z" fill="#0089FF"></path><path opacity="0.3" d="M215.189 494.494H218.725L214.66 351.591H209.774L215.189 494.494Z" fill="white"></path><path d="M182.728 494.494H179.192L183.257 351.591H188.129L182.728 494.494Z" fill="#0089FF"></path><path opacity="0.3" d="M182.728 494.494H179.192L183.257 351.591H188.129L182.728 494.494Z" fill="white"></path><path d="M335.903 458.177L348.459 453.931L338.131 424.616L325.589 428.861L335.903 458.177Z" fill="#FFC3BD"></path><path d="M347.527 449.087L333.774 455.184C333.66 455.224 333.556 455.288 333.469 455.372C333.383 455.456 333.315 455.557 333.272 455.67C333.228 455.782 333.209 455.903 333.217 456.023C333.224 456.144 333.257 456.261 333.314 456.367L338.534 466.974C338.861 467.53 339.377 467.95 339.988 468.157C340.599 468.364 341.264 468.344 341.861 468.102C346.608 465.916 348.738 464.65 354.793 461.991C358.523 460.362 366.026 457.453 370.676 454.46C375.325 451.467 371.678 447.152 369.395 448.015C363.98 450.075 354.974 449.992 350.046 448.934C349.211 448.724 348.331 448.777 347.527 449.087Z" fill="#263238"></path><path opacity="0.2" d="M325.589 428.875L338.145 424.616L344.033 441.389L331.268 445.036L325.589 428.875Z" fill="black"></path><path d="M246.969 296.76C246.969 296.76 309.609 308.064 314.662 328.637C324.587 369.312 346.97 432.926 346.97 432.926L323.139 439.886C323.139 439.886 289.063 366.931 284.775 342.376C249.627 342.376 206.823 345.16 201.255 330.294C196.369 317.098 198.109 296.816 198.109 296.816L246.969 296.76Z" fill="#263238"></path><path d="M321.83 444.048L349.67 434.861L347.29 422.291L316.931 432.982L321.83 444.048Z" fill="#0089FF"></path><path d="M281.337 462.631L295.201 463.689L287.058 429.474L274.126 432.397L281.337 462.631Z" fill="#FFC3BD"></path><path d="M294.853 460.348L279.917 458.692C279.797 458.67 279.674 458.674 279.555 458.704C279.437 458.734 279.326 458.789 279.231 458.866C279.136 458.942 279.058 459.039 279.004 459.148C278.949 459.257 278.919 459.377 278.915 459.499L278.135 471.303C278.162 471.942 278.408 472.552 278.831 473.031C279.254 473.51 279.829 473.829 280.46 473.934C285.652 474.421 288.144 474.38 294.714 475.103C298.751 475.549 306.713 476.788 312.239 476.495C317.766 476.203 316.764 470.649 314.341 470.273C308.62 469.341 300.881 464.775 297.136 461.392C296.504 460.813 295.705 460.448 294.853 460.348V460.348Z" fill="#263238"></path><path opacity="0.2" d="M274.126 432.411L287.058 429.488L291.165 446.776L278.094 449.073L274.126 432.411Z" fill="black"></path><path d="M214.368 296.76C214.368 296.76 290.524 308.161 287.03 336.989C282.005 378.554 294.909 438.675 294.909 438.675L270.479 443.046C270.479 443.046 252.523 368.323 252.383 343.392C227.606 343.392 184.315 345.16 178.775 330.238C173.889 317.042 175.629 296.76 175.629 296.76H214.368Z" fill="#263238"></path><path d="M268.795 447.11L297.456 440.874L296.398 428.137L265.078 435.585L268.795 447.11Z" fill="#0089FF"></path><path d="M254.541 216.651C256.573 224.613 258.564 232.645 260.513 240.649C262.462 248.653 264.369 256.671 266.387 264.577L267.904 270.466L268.684 273.361L269.087 274.753V274.934V275.017C269.087 275.017 269.087 274.892 269.018 274.836C268.913 274.552 268.782 274.277 268.628 274.015L268.419 273.695L268.266 273.486L267.988 273.18C267.695 272.902 267.654 272.943 267.723 273.013C267.873 273.168 268.041 273.303 268.224 273.417C268.837 273.83 269.479 274.197 270.145 274.516C271.649 275.254 273.403 275.908 275.198 276.632C282.437 279.319 290.427 281.602 298.194 284.065L296.969 292.946C292.695 292.996 288.42 292.829 284.163 292.445C279.831 292.088 275.522 291.484 271.259 290.636C268.97 290.191 266.711 289.606 264.494 288.882C263.215 288.473 261.964 287.98 260.749 287.406C260.003 287.059 259.282 286.659 258.592 286.209C257.632 285.597 256.749 284.873 255.961 284.052C255.71 283.773 255.474 283.509 255.195 283.147L254.806 282.618L254.416 281.964C254.129 281.474 253.882 280.962 253.678 280.432L253.455 279.792L252.912 278.261L251.868 275.226C251.186 273.208 250.476 271.189 249.906 269.185C247.386 261.139 245.089 253.135 242.946 245.076C240.802 237.016 238.77 228.97 236.904 220.813L254.541 216.651Z" fill="#FFC3BD"></path><path d="M234.97 207.018C242.612 198.499 254.722 204.457 259.831 223.527C262.308 232.798 261.529 237.642 261.529 237.642L235.164 245.772C229.499 233.244 224.571 218.628 234.97 207.018Z" fill="#0089FF"></path><g opacity="0.2"><path opacity="0.2" d="M234.97 207.018C242.612 198.499 254.722 204.457 259.831 223.527C262.308 232.798 261.529 237.642 261.529 237.642L235.164 245.772C229.499 233.244 224.571 218.628 234.97 207.018Z" fill="black"></path></g><path d="M312.017 280.488L309.65 279.764C308.217 279.331 306.711 279.193 305.224 279.36L300.143 279.959C298.505 280.348 296.968 281.079 295.632 282.103C294.295 283.127 293.191 284.422 292.39 285.903L290.663 289.271C291.526 295.48 304.11 293.447 304.11 293.447H315.984L315.594 285.012C315.535 283.982 315.159 282.995 314.519 282.186C313.879 281.376 313.005 280.783 312.017 280.488Z" fill="#FFC3BD"></path><path d="M320.16 266.902C319.822 269.189 318.859 271.337 317.376 273.11C316.109 274.962 314.801 276.799 313.478 278.678C310.82 282.311 308.105 285.889 305.126 289.299C304.996 289.447 304.816 289.542 304.621 289.566C304.426 289.59 304.228 289.542 304.066 289.431C303.903 289.32 303.787 289.153 303.739 288.962C303.691 288.771 303.714 288.569 303.804 288.395C305.864 284.358 308.189 280.516 310.569 276.702C311.766 274.799 312.991 272.911 314.244 271.036C315.326 268.987 316.948 267.273 318.935 266.081C319.082 265.991 319.251 265.944 319.424 265.946C319.596 265.947 319.765 265.998 319.91 266.091C320.055 266.184 320.171 266.315 320.245 266.471C320.319 266.627 320.347 266.8 320.327 266.972L320.16 266.902Z" fill="#263238"></path><path d="M236.737 198.764L221.885 194.588L202.773 193.697C199.874 193.561 197.012 194.381 194.625 196.031C192.238 197.681 190.459 200.069 189.563 202.828C185.916 213.964 182.603 230 180.125 243.878C177.185 261.358 175.691 279.05 175.656 296.774H246.969C248.43 257.172 253.093 237.823 255.85 223.806C256.658 219.653 256.065 215.349 254.162 211.57C252.26 207.791 249.157 204.75 245.34 202.926L236.737 198.764Z" fill="#0089FF"></path><path d="M216.818 201.548C218.627 206.197 225.629 216.136 233.772 220.02C238.296 216.748 239.271 209.607 239.953 206.267L216.818 201.548Z" fill="white"></path><path d="M239.953 206.266C240.481 204.429 240.261 202.458 239.34 200.782C238.185 198.972 238.477 196.898 239.633 194.769C240.549 193.073 241.697 191.512 243.043 190.133L233.703 179.206L226.089 170.381C225.434 178.635 224.794 188.867 218.28 195.27C215.983 197.539 215.496 198.221 216.818 201.548C218.628 206.197 225.17 212.684 233.244 216.567C234.992 215.385 236.487 213.864 237.639 212.095C238.791 210.326 239.578 208.344 239.953 206.266V206.266Z" fill="#FFC3BD"></path><path opacity="0.2" d="M240.176 188.254L234.9 179.693C234.803 179.916 234.677 180.153 234.552 180.403C234.077 181.463 233.695 182.562 233.411 183.688C232.45 187.488 235.679 192.917 239.215 195.506C239.368 195.27 239.494 195.019 239.633 194.769C240.533 193.161 241.602 191.654 242.82 190.272C242.89 190.219 242.965 190.173 243.043 190.133L240.176 188.254Z" fill="black"></path><path d="M258.606 167.792C259.831 175.684 271.134 155.375 264.814 150.921C257.102 145.464 256.295 152.772 258.606 167.792Z" fill="#263238"></path><path d="M226.437 157.491C225.713 170.311 224.613 177.758 230.501 185.164C239.354 196.3 256.351 192.625 261.042 180.361C265.218 169.309 265.733 150.211 253.413 143.446C241.094 136.68 227.16 144.684 226.437 157.491Z" fill="#FFC3BD"></path><path d="M251.701 149.793C251.701 149.793 259.9 157.839 265.747 154.512C271.593 151.185 272.776 142.569 265.747 135.024C262.364 131.391 257.241 127.841 247.191 128.064C247.984 128.836 248.933 129.43 249.975 129.804C249.975 129.804 237.225 127.674 228.344 131.335C229.055 132.405 230.009 133.293 231.128 133.924C222.483 133.27 214.076 136.708 219.992 144.824C212.155 145.589 210.401 155.612 214.577 162.224C218.753 168.836 219.49 173.791 225.072 176.798C225.072 167.792 227.146 165.662 227.146 165.662C231.169 163.95 235.805 155.375 234.872 151.046C243.475 154.512 252.648 155.653 251.701 149.793Z" fill="#263238"></path><path d="M222.052 144.531C219.324 142.587 217.205 139.908 215.941 136.806C214.939 141.288 219.574 146.397 219.574 146.397L222.052 144.531Z" fill="#263238"></path><path d="M220.033 164.493C220.129 167.428 221.28 170.231 223.277 172.385C225.935 175.169 229.555 172.803 230.237 169.226C230.794 166.01 229.429 161.096 226.061 159.649C222.692 158.201 219.936 160.901 220.033 164.493Z" fill="#FFC3BD"></path><path d="M247.428 164.103C247.219 165.161 247.595 166.149 248.277 166.316C248.959 166.483 249.669 165.759 249.906 164.702C250.142 163.644 249.739 162.655 249.057 162.488C248.375 162.321 247.637 163.059 247.428 164.103Z" fill="#263238"></path><path d="M259.26 166.929C259.037 167.986 259.427 168.961 260.109 169.128C260.791 169.295 261.501 168.571 261.738 167.513C261.974 166.455 261.557 165.467 260.875 165.314C260.193 165.161 259.469 165.871 259.26 166.929Z" fill="#263238"></path><path d="M255.321 166.845C255.628 169.877 256.34 172.855 257.436 175.698C255.488 176.687 253.038 175.197 253.038 175.197L255.321 166.845Z" fill="#ED847E"></path><path d="M250.852 181.113C249.626 180.857 248.465 180.354 247.439 179.637C246.413 178.919 245.542 178.001 244.881 176.937C244.854 176.9 244.836 176.858 244.826 176.814C244.817 176.77 244.818 176.724 244.828 176.679C244.838 176.635 244.857 176.594 244.884 176.557C244.911 176.521 244.946 176.491 244.986 176.469C245.025 176.447 245.069 176.434 245.115 176.43C245.16 176.427 245.205 176.433 245.248 176.448C245.291 176.464 245.33 176.488 245.362 176.519C245.395 176.551 245.421 176.589 245.437 176.631C246.175 177.767 247.163 178.72 248.327 179.415C249.49 180.11 250.796 180.529 252.147 180.64C252.188 180.641 252.228 180.652 252.265 180.67C252.302 180.688 252.334 180.713 252.36 180.745C252.387 180.776 252.406 180.813 252.417 180.853C252.428 180.892 252.431 180.933 252.425 180.974C252.423 181.015 252.413 181.056 252.395 181.094C252.377 181.131 252.352 181.165 252.321 181.192C252.29 181.219 252.253 181.24 252.214 181.253C252.174 181.266 252.132 181.27 252.091 181.266C251.675 181.24 251.262 181.189 250.852 181.113V181.113Z" fill="#263238"></path><path d="M245.869 159.843C245.772 159.804 245.686 159.742 245.618 159.662C245.513 159.532 245.463 159.366 245.479 159.2C245.494 159.033 245.574 158.88 245.702 158.772C246.455 158.121 247.358 157.667 248.329 157.448C249.3 157.229 250.31 157.254 251.27 157.519C251.429 157.572 251.56 157.687 251.634 157.837C251.708 157.987 251.72 158.16 251.667 158.319C251.613 158.478 251.499 158.609 251.349 158.683C251.198 158.758 251.025 158.769 250.866 158.716C250.111 158.524 249.32 158.518 248.562 158.697C247.803 158.877 247.099 159.236 246.509 159.746C246.421 159.819 246.315 159.867 246.203 159.884C246.09 159.901 245.974 159.887 245.869 159.843V159.843Z" fill="#263238"></path><path d="M260.722 160.08C260.701 159.979 260.701 159.875 260.722 159.774C260.77 159.614 260.878 159.479 261.023 159.396C261.168 159.313 261.339 159.289 261.501 159.328C262.46 159.584 263.342 160.07 264.07 160.744C264.798 161.419 265.349 162.261 265.677 163.198C265.7 163.278 265.708 163.361 265.699 163.443C265.69 163.526 265.664 163.605 265.624 163.678C265.584 163.75 265.53 163.814 265.465 163.866C265.4 163.917 265.325 163.955 265.246 163.978C265.166 164.001 265.083 164.008 265 163.999C264.918 163.99 264.838 163.965 264.766 163.925C264.693 163.884 264.629 163.83 264.578 163.765C264.526 163.7 264.488 163.626 264.466 163.546C264.198 162.813 263.755 162.157 263.175 161.636C262.595 161.114 261.896 160.742 261.139 160.553C261.036 160.515 260.944 160.452 260.871 160.369C260.798 160.286 260.747 160.187 260.722 160.08Z" fill="#263238"></path><path d="M205.751 212.809C203.079 220.437 200.406 228.385 198.026 236.181C196.815 240.078 195.715 243.99 194.727 247.846C193.769 251.549 193.025 255.304 192.5 259.093C192.5 259.511 192.388 259.97 192.374 260.374V260.986C192.374 261.181 192.374 261.473 192.374 261.376C192.374 261.278 192.263 261.459 192.374 261.752C192.727 262.816 193.301 263.793 194.059 264.619C196.45 267.266 199.162 269.604 202.132 271.579C208.836 276.098 215.834 280.163 223.082 283.745L220.103 292.32C215.789 291.379 211.536 290.179 207.366 288.729C203.118 287.273 198.97 285.538 194.95 283.536C190.541 281.386 186.463 278.616 182.839 275.31C180.537 273.188 178.681 270.628 177.382 267.779C176.572 265.949 176.1 263.987 175.99 261.988C175.99 261.362 175.99 261.139 175.99 260.805V259.831C175.99 259.176 175.99 258.578 175.99 257.951C176.23 253.317 176.812 248.706 177.73 244.157C178.566 239.758 179.61 235.499 180.737 231.267C182.996 222.862 185.695 214.582 188.825 206.461L205.751 212.809Z" fill="#FFC3BD"></path><path d="M201.84 193.613C215.454 193.488 218.029 204.081 210.623 220.869C207.79 226.935 204.328 232.688 200.295 238.032L177.786 226.075C180.793 212.67 186.291 193.752 201.84 193.613Z" fill="#0089FF"></path><path d="M239.424 282.409L234.441 279.625C233.626 279.178 232.689 279.003 231.768 279.124L225.782 279.959C221.759 280.377 218.822 283.453 216.637 286.126L214.089 289.244C213.964 295.536 229.861 294.06 229.861 294.06L243.781 293.879L243.349 288.395C243.239 287.151 242.823 285.953 242.138 284.909C241.454 283.864 240.521 283.006 239.424 282.409Z" fill="#FFC3BD"></path><path d="M536.393 290.775H159.593V308.412H536.393V290.775Z" fill="#0089FF"></path><path opacity="0.3" d="M281.81 290.775H159.593V308.412H281.81V290.775Z" fill="white"></path><path d="M169.685 308.411H163.922V502.846H169.685V308.411Z" fill="#0089FF"></path><path opacity="0.7" d="M169.685 308.411H163.922V502.846H169.685V308.411Z" fill="white"></path><path d="M277.495 308.411H271.732V502.846H277.495V308.411Z" fill="#0089FF"></path><path opacity="0.7" d="M277.495 308.411H271.732V502.846H277.495V308.411Z" fill="white"></path><path d="M424.268 308.411H418.505V502.846H424.268V308.411Z" fill="#0089FF"></path><path opacity="0.7" d="M424.268 308.411H418.505V502.846H424.268V308.411Z" fill="white"></path><path d="M532.078 308.411H526.315V502.846H532.078V308.411Z" fill="#0089FF"></path><path opacity="0.7" d="M532.078 308.411H526.315V502.846H532.078V308.411Z" fill="white"></path><path d="M495.552 212.823H392.544C390.779 212.886 389.087 213.548 387.747 214.698C386.406 215.849 385.497 217.421 385.166 219.156L374.42 284.427C374.256 285.205 374.27 286.011 374.461 286.782C374.653 287.554 375.017 288.273 375.526 288.883C376.035 289.494 376.676 289.982 377.401 290.31C378.125 290.637 378.915 290.796 379.71 290.775H482.718C484.488 290.714 486.184 290.052 487.527 288.898C488.871 287.744 489.781 286.168 490.109 284.427L500.856 219.156C501.021 218.378 501.006 217.572 500.814 216.8C500.622 216.027 500.256 215.309 499.745 214.699C499.234 214.089 498.591 213.603 497.865 213.278C497.138 212.953 496.347 212.797 495.552 212.823V212.823Z" fill="#263238"></path><path d="M430.142 286.515H333.161C332.523 286.515 332.006 287.032 332.006 287.671V289.619C332.006 290.257 332.523 290.775 333.161 290.775H430.142C430.78 290.775 431.297 290.257 431.297 289.619V287.671C431.297 287.032 430.78 286.515 430.142 286.515Z" fill="#263238"></path><path opacity="0.2" d="M495.552 212.823H394.799C393.034 212.886 391.342 213.548 390.002 214.698C388.661 215.849 387.752 217.421 387.421 219.156L376.675 284.427C376.508 285.206 376.52 286.012 376.711 286.785C376.901 287.558 377.265 288.277 377.775 288.889C378.284 289.5 378.926 289.988 379.652 290.315C380.378 290.642 381.169 290.799 381.965 290.775H482.648C484.418 290.714 486.114 290.052 487.458 288.898C488.801 287.744 489.712 286.167 490.04 284.427L500.786 219.156C500.949 218.384 500.936 217.584 500.748 216.817C500.559 216.05 500.2 215.336 499.697 214.727C499.194 214.118 498.56 213.63 497.842 213.301C497.125 212.971 496.342 212.808 495.552 212.823V212.823Z" fill="white"></path><path d="M228.928 286.515C228.928 286.515 262.1 291.457 278.108 284.928C285.597 288.534 312.267 290.315 321.552 286.515C318.685 289.842 311.947 290.775 311.947 290.775H241.971C235.248 290.775 230.112 287.837 228.928 286.515Z" fill="#0089FF"></path><path opacity="0.7" d="M228.928 286.515C228.928 286.515 262.1 291.457 278.108 284.928C285.597 288.534 312.267 290.315 321.552 286.515C318.685 289.842 311.947 290.775 311.947 290.775H241.971C235.248 290.775 230.112 287.837 228.928 286.515Z" fill="white"></path></svg>